<svg width="28" height="28" viewBox="0 0 28 28" fill="none" xmlns="http://www.w3.org/2000/svg">
<g clip-path="url(#clip0_1_36)">
<path d="M18.3339 8.56598C18.579 8.57235 18.8203 8.62692 19.0443 8.72658C21.0928 9.63837 22.1948 11.7673 22.1948 14C22.1948 16.2327 21.0928 18.3616 19.0443 19.2734C18.592 19.4747 18.0783 19.4881 17.6161 19.3106C17.1539 19.1332 16.7812 18.7794 16.5799 18.3271C16.3786 17.8748 16.3652 17.361 16.5427 16.8989C16.7201 16.4367 17.0739 16.064 17.5262 15.8627C17.9308 15.6825 18.4615 14.9598 18.4615 14C18.4615 13.0402 17.9308 12.3175 17.5262 12.1373C17.0739 11.936 16.7201 11.5633 16.5427 11.1011C16.3652 10.639 16.3786 10.1252 16.5799 9.67294C16.73 9.33566 16.9768 9.05046 17.289 8.85343C17.6012 8.65639 17.9648 8.55635 18.3339 8.56598Z" fill="black"/>
<path d="M22.6045 4.67323C22.8488 4.6938 23.0866 4.76227 23.3045 4.87475C26.3943 6.47019 28 10.1109 28 14C28 17.8891 26.3943 21.5298 23.3045 23.1252C23.0866 23.2377 22.8488 23.3062 22.6045 23.3268C22.3603 23.3473 22.1143 23.3196 21.8808 23.2451C21.6472 23.1706 21.4306 23.0508 21.2434 22.8926C21.0561 22.7344 20.9018 22.5409 20.7894 22.3231C20.5623 21.8832 20.5192 21.3711 20.6696 20.8994C20.82 20.4278 21.1517 20.0352 21.5916 19.8081C22.927 19.1185 24.2667 16.7918 24.2667 14C24.2667 11.2082 22.927 8.88146 21.5916 8.19191C21.1517 7.96478 20.82 7.5722 20.6696 7.10055C20.5192 6.6289 20.5623 6.11681 20.7894 5.67693C20.9588 5.34887 21.2216 5.07841 21.5447 4.89976C21.8678 4.7211 22.2366 4.64227 22.6045 4.67323Z" fill="black"/>
<path d="M13.6457 0.00487521C13.3899 0.023392 13.1406 0.0944255 12.9135 0.213544C12.6863 0.332663 12.4862 0.497312 12.3255 0.697219L5.73745 8.89761H1.86667C1.37161 8.89766 0.896846 9.09434 0.546789 9.4444C0.196731 9.79446 4.94981e-05 10.2692 0 10.7643L0 16.8311C4.94981e-05 17.3262 0.196731 17.8009 0.546789 18.151C0.896846 18.5011 1.37161 18.6977 1.86667 18.6978H5.71257L12.3006 27.2711C12.5382 27.5801 12.8667 27.807 13.2398 27.9199C13.613 28.0329 14.0121 28.0261 14.3812 27.9007C14.7504 27.7752 15.0709 27.5374 15.298 27.2205C15.5251 26.9036 15.6473 26.5235 15.6474 26.1337V1.86626C15.6473 1.60979 15.5944 1.35609 15.4919 1.12099C15.3894 0.885879 15.2396 0.674406 15.0518 0.499758C14.864 0.32511 14.6422 0.191032 14.4003 0.105887C14.1584 0.020742 13.9015 -0.0136435 13.6457 0.00487521ZM11.914 7.1704V20.6409L8.11243 15.6937C7.9381 15.4669 7.71396 15.2831 7.45732 15.1567C7.20068 15.0302 6.91841 14.9645 6.63232 14.9645H3.73333V12.6309H6.63232C6.91161 12.6309 7.18734 12.5683 7.4392 12.4475C7.69106 12.3268 7.91261 12.1511 8.08755 11.9334L11.914 7.1704Z" fill="black"/>
</g>
<defs>
<clipPath id="clip0_1_36">
<rect width="28" height="28" fill="white"/>
</clipPath>
</defs>
</svg>
