<svg width="30" height="28" viewBox="0 0 30 28" fill="none" xmlns="http://www.w3.org/2000/svg">
<path d="M14.8253 0.00487331C14.5474 0.0233902 14.2766 0.0944237 14.0298 0.213543C13.783 0.332662 13.5655 0.497311 13.3909 0.697218L6.23342 8.89762H2.02803C1.49018 8.89767 0.974373 9.09435 0.594056 9.44441C0.213738 9.79447 5.3777e-05 10.2692 0 10.7643L0 16.8312C5.3777e-05 17.3262 0.213738 17.801 0.594056 18.151C0.974373 18.5011 1.49018 18.6978 2.02803 18.6978H6.20639L13.3639 27.2711C13.6221 27.5802 13.9789 27.8071 14.3843 27.92C14.7897 28.0329 15.2234 28.0262 15.6244 27.9007C16.0254 27.7753 16.3737 27.5374 16.6204 27.2205C16.8672 26.9036 16.9999 26.5236 17 26.1337V1.86626C16.9999 1.60979 16.9424 1.35609 16.8311 1.12099C16.7198 0.885878 16.557 0.674405 16.353 0.499757C16.1489 0.325108 15.908 0.19103 15.6451 0.105885C15.3823 0.0207401 15.1032 -0.0136454 14.8253 0.00487331ZM12.9439 7.17041V20.641L8.81371 15.6937C8.6243 15.4669 8.38079 15.2832 8.10196 15.1567C7.82314 15.0303 7.51647 14.9645 7.20565 14.9645H4.05606V12.631H7.20565C7.50908 12.631 7.80865 12.5683 8.08228 12.4476C8.35591 12.3268 8.59662 12.1511 8.78668 11.9334L12.9439 7.17041Z" fill="black"/>
<path d="M20.8334 8C20.5926 7.99999 20.3542 8.05171 20.1318 8.15221C19.9094 8.25271 19.7072 8.40002 19.537 8.58574C19.3668 8.77146 19.2317 8.99194 19.1396 9.23459C19.0474 9.47725 19 9.73733 19 9.99999C19 10.2626 19.0474 10.5227 19.1396 10.7654C19.2317 11.008 19.3668 11.2285 19.537 11.4142L21.9072 14L19.537 16.5857C19.3668 16.7714 19.2317 16.9919 19.1396 17.2345C19.0474 17.4772 19 17.7373 19 17.9999C19 18.2626 19.0474 18.5227 19.1396 18.7653C19.2317 19.008 19.3668 19.2285 19.537 19.4142C19.7072 19.5999 19.9094 19.7472 20.1318 19.8477C20.3542 19.9483 20.5926 20 20.8334 20C21.0742 20 21.3126 19.9483 21.535 19.8477C21.7574 19.7472 21.9595 19.5999 22.1298 19.4142L24.5 16.8285L26.8702 19.4142C27.0405 19.5999 27.2426 19.7472 27.465 19.8477C27.6874 19.9483 27.9258 20 28.1666 20C28.4074 20 28.6458 19.9483 28.8682 19.8477C29.0906 19.7472 29.2928 19.5999 29.463 19.4142C29.6332 19.2285 29.7683 19.008 29.8604 18.7653C29.9526 18.5227 30 18.2626 30 17.9999C30 17.7373 29.9526 17.4772 29.8604 17.2345C29.7683 16.9919 29.6332 16.7714 29.463 16.5857L27.0928 14L29.463 11.4142C29.6332 11.2285 29.7683 11.008 29.8604 10.7654C29.9526 10.5227 30 10.2626 30 9.99999C30 9.73733 29.9526 9.47725 29.8604 9.23459C29.7683 8.99194 29.6332 8.77146 29.463 8.58574C29.2927 8.40002 29.0906 8.25271 28.8682 8.15221C28.6458 8.05171 28.4074 7.99999 28.1666 8C27.9259 7.99999 27.6875 8.05171 27.465 8.15221C27.2426 8.25271 27.0405 8.40002 26.8702 8.58574L24.5 11.1715L22.1298 8.58574C21.9595 8.40002 21.7574 8.25271 21.535 8.15221C21.3125 8.05171 21.0741 7.99999 20.8334 8Z" fill="black"/>
</svg>
